<svg id="visual" viewBox="0 0 900 600" width="900" height="600" xmlns="http://www.w3.org/2000/svg" xmlns:xlink="http://www.w3.org/1999/xlink" version="1.1"><path d="M0 482L50 461L100 447L150 493L200 447L250 450L300 456L350 452L400 480L450 450L500 479L550 483L600 471L650 486L700 481L750 450L800 449L850 494L900 463L900 601L850 601L800 601L750 601L700 601L650 601L600 601L550 601L500 601L450 601L400 601L350 601L300 601L250 601L200 601L150 601L100 601L50 601L0 601Z" fill="#ec008c"></path><path d="M0 508L50 511L100 488L150 508L200 469L250 491L300 465L350 474L400 473L450 491L500 475L550 504L600 466L650 477L700 477L750 507L800 493L850 496L900 492L900 601L850 601L800 601L750 601L700 601L650 601L600 601L550 601L500 601L450 601L400 601L350 601L300 601L250 601L200 601L150 601L100 601L50 601L0 601Z" fill="#db3cb1"></path><path d="M0 502L50 500L100 510L150 517L200 522L250 509L300 500L350 500L400 481L450 496L500 503L550 513L600 511L650 506L700 488L750 480L800 519L850 520L900 509L900 601L850 601L800 601L750 601L700 601L650 601L600 601L550 601L500 601L450 601L400 601L350 601L300 601L250 601L200 601L150 601L100 601L50 601L0 601Z" fill="#c05bcf"></path><path d="M0 514L50 528L100 527L150 511L200 528L250 501L300 495L350 501L400 505L450 496L500 527L550 497L600 516L650 504L700 497L750 518L800 518L850 531L900 530L900 601L850 601L800 601L750 601L700 601L650 601L600 601L550 601L500 601L450 601L400 601L350 601L300 601L250 601L200 601L150 601L100 601L50 601L0 601Z" fill="#9e73e5"></path><path d="M0 519L50 537L100 541L150 526L200 536L250 511L300 532L350 543L400 525L450 513L500 542L550 520L600 511L650 518L700 514L750 520L800 538L850 542L900 529L900 601L850 601L800 601L750 601L700 601L650 601L600 601L550 601L500 601L450 601L400 601L350 601L300 601L250 601L200 601L150 601L100 601L50 601L0 601Z" fill="#7686f1"></path><path d="M0 552L50 552L100 534L150 550L200 545L250 555L300 550L350 535L400 527L450 527L500 530L550 532L600 539L650 543L700 556L750 538L800 552L850 544L900 542L900 601L850 601L800 601L750 601L700 601L650 601L600 601L550 601L500 601L450 601L400 601L350 601L300 601L250 601L200 601L150 601L100 601L50 601L0 601Z" fill="#4795f4"></path><path d="M0 554L50 548L100 550L150 553L200 548L250 542L300 567L350 542L400 546L450 567L500 557L550 556L600 554L650 555L700 548L750 551L800 553L850 558L900 561L900 601L850 601L800 601L750 601L700 601L650 601L600 601L550 601L500 601L450 601L400 601L350 601L300 601L250 601L200 601L150 601L100 601L50 601L0 601Z" fill="#00a1f0"></path><path d="M0 558L50 575L100 572L150 557L200 575L250 572L300 573L350 565L400 559L450 571L500 558L550 572L600 578L650 564L700 579L750 573L800 568L850 563L900 564L900 601L850 601L800 601L750 601L700 601L650 601L600 601L550 601L500 601L450 601L400 601L350 601L300 601L250 601L200 601L150 601L100 601L50 601L0 601Z" fill="#00abe5"></path><path d="M0 583L50 578L100 581L150 581L200 589L250 590L300 582L350 573L400 580L450 587L500 583L550 586L600 579L650 584L700 580L750 575L800 585L850 579L900 581L900 601L850 601L800 601L750 601L700 601L650 601L600 601L550 601L500 601L450 601L400 601L350 601L300 601L250 601L200 601L150 601L100 601L50 601L0 601Z" fill="#00b2d8"></path></svg>