<svg id="visual" viewBox="0 0 900 450" width="900" height="450" xmlns="http://www.w3.org/2000/svg" xmlns:xlink="http://www.w3.org/1999/xlink" version="1.1"><path d="M0 129L6.5 128.2C13 127.3 26 125.7 39 125.5C52 125.3 65 126.7 78 125.5C91 124.3 104 120.7 117.2 121C130.3 121.3 143.7 125.7 156.8 127.8C170 130 183 130 196 127.5C209 125 222 120 235 117.2C248 114.3 261 113.7 274 115.2C287 116.7 300 120.3 313 123C326 125.7 339 127.3 352 128.8C365 130.3 378 131.7 391 130.5C404 129.3 417 125.7 430.2 123.5C443.3 121.3 456.7 120.7 469.8 120C483 119.3 496 118.7 509 117.7C522 116.7 535 115.3 548 115.5C561 115.7 574 117.3 587 119.8C600 122.3 613 125.7 626 126.3C639 127 652 125 665 122.2C678 119.3 691 115.7 704 115.5C717 115.3 730 118.7 743.2 119C756.3 119.3 769.7 116.7 782.8 117.3C796 118 809 122 822 124.3C835 126.7 848 127.3 861 126.7C874 126 887 124 893.5 123L900 122L900 0L893.5 0C887 0 874 0 861 0C848 0 835 0 822 0C809 0 796 0 782.8 0C769.7 0 756.3 0 743.2 0C730 0 717 0 704 0C691 0 678 0 665 0C652 0 639 0 626 0C613 0 600 0 587 0C574 0 561 0 548 0C535 0 522 0 509 0C496 0 483 0 469.8 0C456.7 0 443.3 0 430.2 0C417 0 404 0 391 0C378 0 365 0 352 0C339 0 326 0 313 0C300 0 287 0 274 0C261 0 248 0 235 0C222 0 209 0 196 0C183 0 170 0 156.8 0C143.7 0 130.3 0 117.2 0C104 0 91 0 78 0C65 0 52 0 39 0C26 0 13 0 6.5 0L0 0Z" fill="#ec008c"></path><path d="M0 121L6.5 118.8C13 116.7 26 112.3 39 111.8C52 111.3 65 114.7 78 116C91 117.3 104 116.7 117.2 115C130.3 113.3 143.7 110.7 156.8 109.8C170 109 183 110 196 110.3C209 110.7 222 110.3 235 109.7C248 109 261 108 274 109.3C287 110.7 300 114.3 313 115.7C326 117 339 116 352 113C365 110 378 105 391 105C404 105 417 110 430.2 112.8C443.3 115.7 456.7 116.3 469.8 117.5C483 118.7 496 120.3 509 121.2C522 122 535 122 548 120.7C561 119.3 574 116.7 587 116.5C600 116.3 613 118.7 626 119.7C639 120.7 652 120.3 665 119C678 117.7 691 115.3 704 115.3C717 115.3 730 117.7 743.2 115.8C756.3 114 769.7 108 782.8 105.2C796 102.3 809 102.7 822 105C835 107.3 848 111.7 861 112.3C874 113 887 110 893.5 108.5L900 107L900 0L893.5 0C887 0 874 0 861 0C848 0 835 0 822 0C809 0 796 0 782.8 0C769.7 0 756.3 0 743.2 0C730 0 717 0 704 0C691 0 678 0 665 0C652 0 639 0 626 0C613 0 600 0 587 0C574 0 561 0 548 0C535 0 522 0 509 0C496 0 483 0 469.8 0C456.7 0 443.3 0 430.2 0C417 0 404 0 391 0C378 0 365 0 352 0C339 0 326 0 313 0C300 0 287 0 274 0C261 0 248 0 235 0C222 0 209 0 196 0C183 0 170 0 156.8 0C143.7 0 130.3 0 117.2 0C104 0 91 0 78 0C65 0 52 0 39 0C26 0 13 0 6.5 0L0 0Z" fill="#df35aa"></path><path d="M0 109L6.5 107.5C13 106 26 103 39 102C52 101 65 102 78 100.5C91 99 104 95 117.2 94.8C130.3 94.7 143.7 98.3 156.8 98.7C170 99 183 96 196 96.8C209 97.7 222 102.3 235 102.2C248 102 261 97 274 96.8C287 96.7 300 101.3 313 102C326 102.7 339 99.3 352 99C365 98.7 378 101.3 391 103C404 104.7 417 105.3 430.2 104.5C443.3 103.7 456.7 101.3 469.8 98.8C483 96.3 496 93.7 509 95.7C522 97.7 535 104.3 548 105.2C561 106 574 101 587 98.3C600 95.7 613 95.3 626 96C639 96.7 652 98.3 665 97.3C678 96.3 691 92.7 704 91.3C717 90 730 91 743.2 93C756.3 95 769.7 98 782.8 99.5C796 101 809 101 822 102C835 103 848 105 861 104.2C874 103.3 887 99.7 893.5 97.8L900 96L900 0L893.5 0C887 0 874 0 861 0C848 0 835 0 822 0C809 0 796 0 782.8 0C769.7 0 756.3 0 743.2 0C730 0 717 0 704 0C691 0 678 0 665 0C652 0 639 0 626 0C613 0 600 0 587 0C574 0 561 0 548 0C535 0 522 0 509 0C496 0 483 0 469.8 0C456.7 0 443.3 0 430.2 0C417 0 404 0 391 0C378 0 365 0 352 0C339 0 326 0 313 0C300 0 287 0 274 0C261 0 248 0 235 0C222 0 209 0 196 0C183 0 170 0 156.8 0C143.7 0 130.3 0 117.2 0C104 0 91 0 78 0C65 0 52 0 39 0C26 0 13 0 6.5 0L0 0Z" fill="#cc50c4"></path><path d="M0 85L6.5 86C13 87 26 89 39 88.5C52 88 65 85 78 85.2C91 85.3 104 88.7 117.2 90.3C130.3 92 143.7 92 156.8 93C170 94 183 96 196 94C209 92 222 86 235 84.5C248 83 261 86 274 87C287 88 300 87 313 86.7C326 86.3 339 86.7 352 86C365 85.3 378 83.7 391 84.2C404 84.7 417 87.3 430.2 90C443.3 92.7 456.7 95.3 469.8 93.5C483 91.7 496 85.3 509 82.3C522 79.3 535 79.7 548 82.8C561 86 574 92 587 92.5C600 93 613 88 626 85.7C639 83.3 652 83.7 665 85C678 86.3 691 88.7 704 90C717 91.3 730 91.7 743.2 91.8C756.3 92 769.7 92 782.8 91.2C796 90.3 809 88.7 822 87.7C835 86.7 848 86.3 861 86C874 85.7 887 85.3 893.5 85.2L900 85L900 0L893.5 0C887 0 874 0 861 0C848 0 835 0 822 0C809 0 796 0 782.8 0C769.7 0 756.3 0 743.2 0C730 0 717 0 704 0C691 0 678 0 665 0C652 0 639 0 626 0C613 0 600 0 587 0C574 0 561 0 548 0C535 0 522 0 509 0C496 0 483 0 469.8 0C456.7 0 443.3 0 430.2 0C417 0 404 0 391 0C378 0 365 0 352 0C339 0 326 0 313 0C300 0 287 0 274 0C261 0 248 0 235 0C222 0 209 0 196 0C183 0 170 0 156.8 0C143.7 0 130.3 0 117.2 0C104 0 91 0 78 0C65 0 52 0 39 0C26 0 13 0 6.5 0L0 0Z" fill="#b465d9"></path><path d="M0 75L6.5 75.5C13 76 26 77 39 77.3C52 77.7 65 77.3 78 77.3C91 77.3 104 77.7 117.2 78.2C130.3 78.7 143.7 79.3 156.8 78C170 76.7 183 73.3 196 71.2C209 69 222 68 235 69C248 70 261 73 274 74.8C287 76.7 300 77.3 313 78C326 78.7 339 79.3 352 79.3C365 79.3 378 78.7 391 77.5C404 76.3 417 74.7 430.2 75C443.3 75.3 456.7 77.7 469.8 77.2C483 76.7 496 73.3 509 71.2C522 69 535 68 548 70.8C561 73.7 574 80.3 587 82C600 83.7 613 80.3 626 80.5C639 80.7 652 84.3 665 85.8C678 87.3 691 86.7 704 86.5C717 86.3 730 86.7 743.2 84.7C756.3 82.7 769.7 78.3 782.8 76.8C796 75.3 809 76.7 822 75.8C835 75 848 72 861 73.3C874 74.7 887 80.3 893.5 83.2L900 86L900 0L893.5 0C887 0 874 0 861 0C848 0 835 0 822 0C809 0 796 0 782.8 0C769.7 0 756.3 0 743.2 0C730 0 717 0 704 0C691 0 678 0 665 0C652 0 639 0 626 0C613 0 600 0 587 0C574 0 561 0 548 0C535 0 522 0 509 0C496 0 483 0 469.8 0C456.7 0 443.3 0 430.2 0C417 0 404 0 391 0C378 0 365 0 352 0C339 0 326 0 313 0C300 0 287 0 274 0C261 0 248 0 235 0C222 0 209 0 196 0C183 0 170 0 156.8 0C143.7 0 130.3 0 117.2 0C104 0 91 0 78 0C65 0 52 0 39 0C26 0 13 0 6.5 0L0 0Z" fill="#9777e8"></path><path d="M0 72L6.5 72.7C13 73.3 26 74.7 39 72.7C52 70.7 65 65.3 78 64C91 62.7 104 65.3 117.2 64.7C130.3 64 143.7 60 156.8 60.5C170 61 183 66 196 69.5C209 73 222 75 235 74.2C248 73.3 261 69.7 274 67C287 64.3 300 62.7 313 61.5C326 60.3 339 59.7 352 61.3C365 63 378 67 391 69.2C404 71.3 417 71.7 430.2 71.8C443.3 72 456.7 72 469.8 70C483 68 496 64 509 64.7C522 65.3 535 70.7 548 71.3C561 72 574 68 587 65C600 62 613 60 626 58.7C639 57.3 652 56.7 665 56.3C678 56 691 56 704 59.5C717 63 730 70 743.2 70.5C756.3 71 769.7 65 782.8 65C796 65 809 71 822 73.7C835 76.3 848 75.7 861 73C874 70.3 887 65.7 893.5 63.3L900 61L900 0L893.5 0C887 0 874 0 861 0C848 0 835 0 822 0C809 0 796 0 782.8 0C769.7 0 756.3 0 743.2 0C730 0 717 0 704 0C691 0 678 0 665 0C652 0 639 0 626 0C613 0 600 0 587 0C574 0 561 0 548 0C535 0 522 0 509 0C496 0 483 0 469.8 0C456.7 0 443.3 0 430.2 0C417 0 404 0 391 0C378 0 365 0 352 0C339 0 326 0 313 0C300 0 287 0 274 0C261 0 248 0 235 0C222 0 209 0 196 0C183 0 170 0 156.8 0C143.7 0 130.3 0 117.2 0C104 0 91 0 78 0C65 0 52 0 39 0C26 0 13 0 6.5 0L0 0Z" fill="#7686f1"></path><path d="M0 63L6.5 60.2C13 57.3 26 51.7 39 51.8C52 52 65 58 78 59.3C91 60.7 104 57.3 117.2 57.2C130.3 57 143.7 60 156.8 58.7C170 57.3 183 51.7 196 51.8C209 52 222 58 235 60.8C248 63.7 261 63.3 274 62.3C287 61.3 300 59.7 313 57C326 54.3 339 50.7 352 51C365 51.3 378 55.7 391 58.8C404 62 417 64 430.2 63.5C443.3 63 456.7 60 469.8 57.5C483 55 496 53 509 54C522 55 535 59 548 58C561 57 574 51 587 48.5C600 46 613 47 626 48.5C639 50 652 52 665 52C678 52 691 50 704 49.2C717 48.3 730 48.7 743.2 48C756.3 47.3 769.7 45.7 782.8 46.8C796 48 809 52 822 52.3C835 52.7 848 49.3 861 49.7C874 50 887 54 893.5 56L900 58L900 0L893.5 0C887 0 874 0 861 0C848 0 835 0 822 0C809 0 796 0 782.8 0C769.7 0 756.3 0 743.2 0C730 0 717 0 704 0C691 0 678 0 665 0C652 0 639 0 626 0C613 0 600 0 587 0C574 0 561 0 548 0C535 0 522 0 509 0C496 0 483 0 469.8 0C456.7 0 443.3 0 430.2 0C417 0 404 0 391 0C378 0 365 0 352 0C339 0 326 0 313 0C300 0 287 0 274 0C261 0 248 0 235 0C222 0 209 0 196 0C183 0 170 0 156.8 0C143.7 0 130.3 0 117.2 0C104 0 91 0 78 0C65 0 52 0 39 0C26 0 13 0 6.5 0L0 0Z" fill="#5192f4"></path><path d="M0 36L6.5 38.7C13 41.3 26 46.7 39 46.2C52 45.7 65 39.3 78 38.5C91 37.7 104 42.3 117.2 44.2C130.3 46 143.7 45 156.8 42.8C170 40.7 183 37.3 196 38.3C209 39.3 222 44.7 235 47.3C248 50 261 50 274 48.5C287 47 300 44 313 43.2C326 42.3 339 43.7 352 44.2C365 44.7 378 44.3 391 42.7C404 41 417 38 430.2 36.8C443.3 35.7 456.7 36.3 469.8 39.3C483 42.3 496 47.7 509 49.5C522 51.3 535 49.7 548 48.7C561 47.7 574 47.3 587 47.2C600 47 613 47 626 48.3C639 49.7 652 52.3 665 53.5C678 54.7 691 54.3 704 54.2C717 54 730 54 743.2 53.7C756.3 53.3 769.7 52.7 782.8 52.8C796 53 809 54 822 54.2C835 54.3 848 53.7 861 50C874 46.3 887 39.7 893.5 36.3L900 33L900 0L893.5 0C887 0 874 0 861 0C848 0 835 0 822 0C809 0 796 0 782.8 0C769.7 0 756.3 0 743.2 0C730 0 717 0 704 0C691 0 678 0 665 0C652 0 639 0 626 0C613 0 600 0 587 0C574 0 561 0 548 0C535 0 522 0 509 0C496 0 483 0 469.8 0C456.7 0 443.3 0 430.2 0C417 0 404 0 391 0C378 0 365 0 352 0C339 0 326 0 313 0C300 0 287 0 274 0C261 0 248 0 235 0C222 0 209 0 196 0C183 0 170 0 156.8 0C143.7 0 130.3 0 117.2 0C104 0 91 0 78 0C65 0 52 0 39 0C26 0 13 0 6.5 0L0 0Z" fill="#249df2"></path><path d="M0 39L6.5 38C13 37 26 35 39 35.5C52 36 65 39 78 38.2C91 37.3 104 32.7 117.2 30.5C130.3 28.3 143.7 28.7 156.8 28.8C170 29 183 29 196 29.3C209 29.7 222 30.3 235 29.7C248 29 261 27 274 28.2C287 29.3 300 33.7 313 34.3C326 35 339 32 352 31.7C365 31.3 378 33.7 391 34.7C404 35.7 417 35.3 430.2 34.7C443.3 34 456.7 33 469.8 32.5C483 32 496 32 509 32.5C522 33 535 34 548 32.8C561 31.7 574 28.3 587 29.3C600 30.3 613 35.7 626 35.2C639 34.7 652 28.3 665 26.5C678 24.7 691 27.3 704 29.7C717 32 730 34 743.2 34C756.3 34 769.7 32 782.8 31C796 30 809 30 822 30.5C835 31 848 32 861 32C874 32 887 31 893.5 30.5L900 30L900 0L893.5 0C887 0 874 0 861 0C848 0 835 0 822 0C809 0 796 0 782.8 0C769.7 0 756.3 0 743.2 0C730 0 717 0 704 0C691 0 678 0 665 0C652 0 639 0 626 0C613 0 600 0 587 0C574 0 561 0 548 0C535 0 522 0 509 0C496 0 483 0 469.8 0C456.7 0 443.3 0 430.2 0C417 0 404 0 391 0C378 0 365 0 352 0C339 0 326 0 313 0C300 0 287 0 274 0C261 0 248 0 235 0C222 0 209 0 196 0C183 0 170 0 156.8 0C143.7 0 130.3 0 117.2 0C104 0 91 0 78 0C65 0 52 0 39 0C26 0 13 0 6.5 0L0 0Z" fill="#00a5ec"></path><path d="M0 12L6.5 12.3C13 12.7 26 13.3 39 14.7C52 16 65 18 78 19.8C91 21.7 104 23.3 117.2 25C130.3 26.7 143.7 28.3 156.8 27.5C170 26.7 183 23.3 196 20C209 16.7 222 13.3 235 12.2C248 11 261 12 274 14.2C287 16.3 300 19.7 313 20.3C326 21 339 19 352 18C365 17 378 17 391 19.2C404 21.3 417 25.7 430.2 25.8C443.3 26 456.7 22 469.8 21.7C483 21.3 496 24.7 509 25.7C522 26.7 535 25.3 548 23.2C561 21 574 18 587 17.3C600 16.7 613 18.3 626 21.2C639 24 652 28 665 30C678 32 691 32 704 29.7C717 27.3 730 22.7 743.2 21.8C756.3 21 769.7 24 782.8 24C796 24 809 21 822 19.7C835 18.3 848 18.7 861 18C874 17.3 887 15.7 893.5 14.8L900 14L900 0L893.5 0C887 0 874 0 861 0C848 0 835 0 822 0C809 0 796 0 782.8 0C769.7 0 756.3 0 743.2 0C730 0 717 0 704 0C691 0 678 0 665 0C652 0 639 0 626 0C613 0 600 0 587 0C574 0 561 0 548 0C535 0 522 0 509 0C496 0 483 0 469.8 0C456.7 0 443.3 0 430.2 0C417 0 404 0 391 0C378 0 365 0 352 0C339 0 326 0 313 0C300 0 287 0 274 0C261 0 248 0 235 0C222 0 209 0 196 0C183 0 170 0 156.8 0C143.7 0 130.3 0 117.2 0C104 0 91 0 78 0C65 0 52 0 39 0C26 0 13 0 6.5 0L0 0Z" fill="#00ace3"></path><path d="M0 0L6.5 0C13 0 26 0 39 1.5C52 3 65 6 78 6.5C91 7 104 5 117.2 4.7C130.3 4.3 143.7 5.7 156.8 5.2C170 4.7 183 2.3 196 1.2C209 0 222 0 235 0.7C248 1.3 261 2.7 274 5.5C287 8.3 300 12.7 313 15.2C326 17.7 339 18.3 352 15.5C365 12.7 378 6.3 391 4.3C404 2.3 417 4.7 430.2 5.7C443.3 6.7 456.7 6.3 469.8 6.5C483 6.7 496 7.3 509 9.5C522 11.7 535 15.3 548 15.3C561 15.3 574 11.7 587 11.2C600 10.7 613 13.3 626 12.7C639 12 652 8 665 5.7C678 3.3 691 2.7 704 3.7C717 4.7 730 7.3 743.2 7.2C756.3 7 769.7 4 782.8 5.8C796 7.7 809 14.3 822 17C835 19.7 848 18.3 861 17.7C874 17 887 17 893.5 17L900 17L900 0L893.5 0C887 0 874 0 861 0C848 0 835 0 822 0C809 0 796 0 782.8 0C769.7 0 756.3 0 743.2 0C730 0 717 0 704 0C691 0 678 0 665 0C652 0 639 0 626 0C613 0 600 0 587 0C574 0 561 0 548 0C535 0 522 0 509 0C496 0 483 0 469.8 0C456.7 0 443.3 0 430.2 0C417 0 404 0 391 0C378 0 365 0 352 0C339 0 326 0 313 0C300 0 287 0 274 0C261 0 248 0 235 0C222 0 209 0 196 0C183 0 170 0 156.8 0C143.7 0 130.3 0 117.2 0C104 0 91 0 78 0C65 0 52 0 39 0C26 0 13 0 6.5 0L0 0Z" fill="#00b2d8"></path></svg>